<svg width="100%" height="100%" viewBox="0 0 1484 208" fill="none" xmlns="http://www.w3.org/2000/svg">
<path d="M680.921 207.978C637.368 207.978 614.898 183.843 614.898 152.774C614.898 124.478 632.93 106.724 658.729 93.6859C647.355 79.8155 642.084 68.7192 642.084 52.6296C642.084 26.8307 662.612 6.85742 693.405 6.85742C723.365 6.85742 745.28 25.1663 745.28 52.3522C745.28 76.764 731.132 88.97 709.772 100.066L736.125 134.187C740.009 124.201 742.783 112.827 743.893 102.008H777.459C775.795 124.201 769.414 145.561 758.595 163.315L789.942 203.817H743.893L733.629 190.778C718.926 201.597 700.895 207.978 680.921 207.978ZM682.308 176.908C694.237 176.908 705.056 172.747 713.933 165.257L677.592 117.82C660.671 128.084 654.845 139.181 654.845 151.664C654.845 166.644 666.774 176.908 682.308 176.908ZM678.425 53.1844C678.425 62.0615 684.528 70.6611 692.85 78.7059C705.888 70.9385 709.494 62.3389 709.494 52.907C709.494 43.1978 702.282 37.0948 693.959 37.0948C685.082 37.0948 678.425 43.7526 678.425 53.1844Z" fill="#F6E921"></path>
<path fill-rule="evenodd" clip-rule="evenodd" d="M95.4281 206.828C39.6692 206.828 0 163.83 0 104.188C0 45.3775 36.6178 0.4375 95.1507 0.4375C143.974 0.4375 172.825 29.5653 176.986 67.2926H137.039C133.433 47.3193 118.453 34.2812 95.1507 34.2812C58.5329 34.2812 41.0563 64.796 41.0563 104.188C41.0563 144.689 62.1392 173.817 95.4281 173.817C119.008 173.817 135.652 159.669 138.149 138.864H177.541C176.431 156.34 168.941 173.262 155.625 185.745C142.033 198.506 122.891 206.828 95.4281 206.828ZM258.341 206.828C214.233 206.828 183.995 174.094 183.995 131.651C183.995 89.2078 214.233 56.4737 258.341 56.4737C302.448 56.4737 332.686 89.2078 332.686 131.651C332.686 174.094 302.448 206.828 258.341 206.828ZM258.341 177.978C281.365 177.978 294.404 159.392 294.404 131.651C294.404 103.91 281.365 85.0467 258.341 85.0467C235.038 85.0467 222.278 103.91 222.278 131.651C222.278 159.392 235.038 177.978 258.341 177.978ZM342.456 4.3212V202.667H380.183V4.3212H342.456ZM396.7 202.667V60.3575H434.427V202.667H396.7ZM487.31 79.776V60.3575H450.415V202.667H488.142V121.942C488.142 102.523 500.348 89.2078 516.993 89.2078C532.805 89.2078 541.682 100.027 541.682 115.284V202.667H579.409V109.736C579.409 78.6663 559.713 56.4737 530.308 56.4737C510.89 56.4737 497.851 64.5186 488.142 79.776H487.31ZM415.539 49.2964C428.053 49.2964 438.198 39.1521 438.198 26.6384C438.198 14.1248 428.053 3.98047 415.539 3.98047C403.025 3.98047 392.881 14.1248 392.881 26.6384C392.881 39.1521 403.025 49.2964 415.539 49.2964Z" fill="#F6E921"></path>
<path fill-rule="evenodd" clip-rule="evenodd" d="M899.869 207.026C846.052 207.026 815.537 183.169 814.15 141.28H853.542C856.316 165.137 869.909 174.569 898.205 174.569C918.733 174.569 936.764 167.356 936.764 149.048C936.764 130.056 918.721 125.924 889.642 119.264C888.988 119.114 888.328 118.963 887.663 118.81C852.155 110.765 819.699 101.334 819.699 59.9999C819.699 20.8855 851.6 0.634766 895.708 0.634766C940.371 0.634766 969.221 22.5499 972.273 62.4966H933.713C931.494 42.5232 915.959 32.5366 895.431 32.5366C873.793 32.5366 859.645 41.691 859.645 55.8388C859.645 71.9284 873.516 76.6443 902.921 83.0247C943.7 91.9017 976.989 101.611 976.989 144.332C976.989 184.556 944.532 207.026 899.869 207.026ZM1079.24 202.587C1077.02 199.813 1075.64 193.155 1074.8 186.775H1074.25C1067.04 197.594 1056.77 205.916 1032.36 205.916C1003.23 205.916 982.704 190.659 982.704 162.363C982.704 131.016 1008.23 121.029 1039.85 116.591C1063.43 113.262 1074.25 111.32 1074.25 100.501C1074.25 90.2373 1066.2 83.5795 1050.39 83.5795C1032.64 83.5795 1024.04 89.9599 1022.93 103.553H989.361C990.471 78.5862 1009.06 56.671 1050.67 56.671C1093.39 56.671 1110.59 75.8121 1110.59 109.101V181.504C1110.59 192.323 1112.25 198.703 1115.58 201.2V202.587H1079.24ZM1041.51 179.562C1063.15 179.562 1075.08 166.247 1075.08 152.376V131.016C1068.9 134.62 1059.62 136.791 1050.78 138.858C1050.09 139.019 1049.41 139.179 1048.73 139.338C1029.03 143.777 1019.32 148.215 1019.32 161.531C1019.32 174.846 1028.2 179.562 1041.51 179.562ZM1126.25 60.2773V202.587H1163.98V119.92C1163.98 101.056 1174.24 88.8502 1189.5 88.8502C1203.37 88.8502 1211.42 97.1725 1211.42 113.262V202.587H1249.14V119.92C1249.14 101.056 1258.85 88.8502 1274.66 88.8502C1288.53 88.8502 1296.58 97.1725 1296.58 113.262V202.587H1334.31V106.882C1334.31 75.8121 1317.38 56.3936 1287.42 56.3936C1269.39 56.3936 1254.41 65.8254 1244.7 81.3603H1244.15C1237.21 66.3803 1222.79 56.3936 1204.76 56.3936C1185.06 56.3936 1171.19 66.3803 1163.42 79.4184H1162.59V60.2773H1126.25ZM1349.28 202.587V60.2773H1387.01V202.587H1349.28ZM1439.34 83.0247V60.2773H1403V202.587H1440.72V133.235C1440.72 103.275 1458.48 90.2373 1483.17 92.7339H1484V59.7225C1481.78 58.8903 1479.28 58.6129 1475.12 58.6129C1458.48 58.6129 1448.77 66.9351 1440.17 83.0247H1439.34ZM1368.12 49.2945C1380.64 49.2945 1390.78 39.1501 1390.78 26.6365C1390.78 14.1228 1380.64 3.97852 1368.12 3.97852C1355.61 3.97852 1345.46 14.1228 1345.46 26.6365C1345.46 39.1501 1355.61 49.2945 1368.12 49.2945Z" fill="#F6E921"></path>
</svg>